<svg xmlns="http://www.w3.org/2000/svg" viewBox="0 0 512 512" width="512" height="512">
  <defs>
    <linearGradient id="plexster-bg" x1="0" y1="0" x2="512" y2="512" gradientUnits="userSpaceOnUse">
      <stop offset="0%" stop-color="#303a45" />
      <stop offset="100%" stop-color="#202832" />
    </linearGradient>
  </defs>
  <rect width="512" height="512" fill="url(#plexster-bg)" />
  <g transform="translate(75.645 344.324) scale(1.23701)">
    <path
      fill="#f5c84b"
      fill-rule="evenodd"
      d="M160.80 3.60Q133.20 3.60 113.60-8.80Q106.40-13.20 100.40-19.20L100.40 77.60L24.40 77.60L24.40-216.80L96.80-216.80L96.80-195.20Q103.60-203.20 112.40-208.40Q131.60-220.40 160.80-220.40Q190.40-220.40 214.60-206.60Q238.80-192.80 253-167.80Q267.20-142.80 267.20-108.40Q267.20-74 253-48.80Q238.80-23.60 214.60-10Q190.40 3.60 160.80 3.60M144.80-56.80Q157.60-56.80 167.80-62.80Q178-68.80 184.20-80.40Q190.40-92 190.40-108.40Q190.40-124.80 184.20-136.40Q178-148 167.80-154Q157.60-160 144.80-160Q132-160 121.80-154Q111.60-148 105.40-136.40Q99.20-124.80 99.20-108.40Q99.20-92 105.40-80.40Q111.60-68.80 121.80-62.80Q132-56.80 144.80-56.80"
    />
  </g>
</svg>
